<svg width="96" height="96" viewBox="0 0 96 96" fill="none" xmlns="http://www.w3.org/2000/svg">
<path fill-rule="evenodd" clip-rule="evenodd" d="M19.94 8C14.46 8 10.408 12.796 10.592 17.992C10.764 22.992 10.54 29.46 8.912 34.736C7.272 40.024 4.512 43.376 0 43.808V48.668C4.512 49.096 7.276 52.448 8.908 57.74C10.54 63.016 10.764 69.484 10.588 74.48C10.408 79.68 14.46 84.476 19.94 84.476H76.068C81.548 84.476 85.6 79.68 85.416 74.48C85.244 69.484 85.468 63.016 87.096 57.74C88.732 52.448 91.488 49.1 96 48.668V43.808C91.488 43.376 88.732 40.024 87.096 34.736C85.468 29.456 85.244 22.988 85.416 17.992C85.6 12.792 81.544 8 76.068 8H19.94ZM65.08 55.076C65.08 62.236 59.74 66.576 50.88 66.576H35.796C35.3642 66.576 34.9501 66.4045 34.6448 66.0992C34.3395 65.7939 34.168 65.3798 34.168 64.948V27.524C34.1691 27.0929 34.341 26.6799 34.6462 26.3754C34.9514 26.071 35.3649 25.9 35.796 25.9H50.796C58.184 25.9 63.036 29.9 63.036 36.048C63.036 40.36 59.772 44.22 55.616 44.9V45.124C61.276 45.744 65.084 49.664 65.084 55.076H65.08ZM49.24 31.056H40.64V43.208H47.884C53.484 43.208 56.572 40.952 56.572 36.92C56.572 33.144 53.916 31.056 49.24 31.056ZM40.64 48.028V61.416H49.56C55.388 61.416 58.48 59.076 58.48 54.68C58.48 50.28 55.304 48.028 49.184 48.028H40.64V48.028Z" fill="black"/>
</svg>
