<svg width="96" height="96" viewBox="0 0 96 96" fill="none" xmlns="http://www.w3.org/2000/svg">
<path d="M76.68 8H19.32C18.363 7.97859 17.4114 8.1493 16.5215 8.50204C15.6316 8.85478 14.8215 9.38239 14.139 10.0537C13.4566 10.7249 12.9156 11.5262 12.5482 12.4102C12.1808 13.2941 11.9944 14.2428 12 15.2V80.8C11.9944 81.7572 12.1808 82.7059 12.5482 83.5898C12.9156 84.4738 13.4566 85.2751 14.139 85.9463C14.8215 86.6176 15.6316 87.1452 16.5215 87.498C17.4114 87.8507 18.363 88.0214 19.32 88H76.68C77.6356 88.0159 78.5847 87.8415 79.4722 87.4868C80.3596 87.1321 81.1676 86.6042 81.8489 85.9341C82.5303 85.2639 83.0714 84.4648 83.4407 83.5833C83.81 82.7019 84.0001 81.7557 84 80.8V15.2C84.0001 14.2443 83.81 13.2981 83.4407 12.4167C83.0714 11.5352 82.5303 10.7361 81.8489 10.0659C81.1676 9.39575 80.3596 8.86793 79.4722 8.51324C78.5847 8.15854 77.6356 7.98407 76.68 8V8ZM80 80.8C80 81.2236 79.916 81.643 79.7526 82.0339C79.5893 82.4248 79.35 82.7793 79.0486 83.077C78.7472 83.3747 78.3897 83.6095 77.9969 83.768C77.604 83.9264 77.1836 84.0053 76.76 84H19.32C18.8983 84.0054 18.4798 83.9263 18.0891 83.7674C17.6984 83.6084 17.3435 83.3729 17.0453 83.0747C16.7471 82.7765 16.5116 82.4216 16.3526 82.0309C16.1937 81.6402 16.1146 81.2217 16.12 80.8V15.2C16.1146 14.7783 16.1937 14.3598 16.3526 13.9691C16.5116 13.5784 16.7471 13.2235 17.0453 12.9253C17.3435 12.6271 17.6984 12.3916 18.0891 12.2326C18.4798 12.0737 18.8983 11.9946 19.32 12H76.68C77.1036 11.9947 77.524 12.0736 77.9169 12.232C78.3097 12.3904 78.6672 12.6253 78.9686 12.923C79.27 13.2207 79.5093 13.5752 79.6726 13.9661C79.836 14.357 79.92 14.7764 79.92 15.2L80 80.8Z" fill="black"/>
<path d="M30.12 76L39.12 68L30.12 60V76V76ZM52.88 40C47.7627 40.1275 42.6987 41.0728 37.88 42.8V20H29.88V54.6L35.52 52C40.9527 49.6449 46.7659 48.2899 52.68 48C56.68 48 57.68 50.2 57.68 52.2V76.2H65.68V52C65.7865 50.4517 65.5555 48.8987 65.003 47.4484C64.4505 45.9981 63.5896 44.685 62.48 43.6C61.2048 42.3843 59.6971 41.4388 58.0474 40.8202C56.3978 40.2016 54.6401 39.9226 52.88 40V40ZM52 33H60C63.2566 29.3786 65.3108 24.8369 65.88 20H57.88C57.0464 24.7595 55.0238 29.2312 52 33V33Z" fill="black"/>
</svg>
