<svg width="96" height="96" viewBox="0 0 96 96" fill="none" xmlns="http://www.w3.org/2000/svg">
<g clip-path="url(#clip0_15_7)">
<g filter="url(#filter0_d_15_7)">
<path d="M11.2121 58V33.2727H19.5672C21.499 33.2727 23.0847 33.6027 24.3243 34.2628C25.5639 34.9148 26.4815 35.8123 27.0771 36.9553C27.6728 38.0982 27.9706 39.3982 27.9706 40.8551C27.9706 42.312 27.6728 43.6039 27.0771 44.7308C26.4815 45.8577 25.5679 46.7431 24.3364 47.3871C23.1048 48.023 21.5312 48.3409 19.6155 48.3409H12.8541V45.6364H19.5189C20.839 45.6364 21.9015 45.4432 22.7064 45.0568C23.5194 44.6705 24.107 44.1231 24.4692 43.4148C24.8395 42.6984 25.0246 41.8452 25.0246 40.8551C25.0246 39.8651 24.8395 38.9998 24.4692 38.2592C24.0989 37.5187 23.5073 36.9472 22.6943 36.5447C21.8814 36.1342 20.8068 35.929 19.4706 35.929H14.2064V58H11.2121ZM22.8513 46.892L28.9365 58H25.4593L19.4706 46.892H22.8513ZM32.9601 58V33.2727H47.8834V35.929H35.9545V44.2841H47.1107V46.9403H35.9545V55.3438H48.0766V58H32.9601ZM66.8032 39.4545C66.6583 38.2311 66.0707 37.2812 65.0404 36.6051C64.0101 35.929 62.7464 35.5909 61.2492 35.5909C60.1545 35.5909 59.1966 35.768 58.3756 36.1222C57.5626 36.4763 56.9268 36.9633 56.468 37.5831C56.0172 38.2029 55.7918 38.9072 55.7918 39.696C55.7918 40.3561 55.9488 40.9235 56.2627 41.3984C56.5847 41.8653 56.9952 42.2557 57.4942 42.5696C57.9933 42.8755 58.5165 43.129 59.0638 43.3303C59.6112 43.5234 60.1143 43.6804 60.5731 43.8011L63.0844 44.4773C63.7284 44.6463 64.4448 44.8797 65.2336 45.1776C66.0305 45.4754 66.7911 45.8819 67.5155 46.397C68.248 46.9041 68.8517 47.5561 69.3266 48.353C69.8015 49.1499 70.039 50.1278 70.039 51.2869C70.039 52.6231 69.6888 53.8305 68.9885 54.9091C68.2963 55.9877 67.2821 56.8449 65.9459 57.4808C64.6178 58.1167 63.0039 58.4347 61.1043 58.4347C59.3335 58.4347 57.8001 58.1489 56.5042 57.5774C55.2163 57.0059 54.2021 56.209 53.4616 55.1868C52.7291 54.1645 52.3145 52.9773 52.218 51.625H55.3089C55.3894 52.5587 55.7033 53.3314 56.2506 53.9432C56.806 54.5469 57.5063 54.9976 58.3515 55.2955C59.2047 55.5852 60.1223 55.7301 61.1043 55.7301C62.2473 55.7301 63.2736 55.545 64.1832 55.1747C65.0927 54.7964 65.8131 54.2732 66.3444 53.6051C66.8756 52.929 67.1412 52.1402 67.1412 51.2386C67.1412 50.4176 66.9118 49.7495 66.453 49.2344C65.9942 48.7192 65.3905 48.3007 64.642 47.9787C63.8934 47.6567 63.0844 47.375 62.2151 47.1335L59.1725 46.2642C57.2407 45.7088 55.7113 44.916 54.5844 43.8857C53.4575 42.8553 52.8941 41.5071 52.8941 39.8409C52.8941 38.4564 53.2684 37.2491 54.017 36.2188C54.7736 35.1804 55.7878 34.3755 57.0596 33.804C58.3394 33.2244 59.7681 32.9347 61.3458 32.9347C62.9395 32.9347 64.3562 33.2204 65.5958 33.7919C66.8354 34.3553 67.8174 35.1281 68.5418 36.1101C69.2743 37.0921 69.6607 38.2069 69.7009 39.4545H66.8032ZM73.6098 35.929V33.2727H92.1553V35.929H84.3797V58H81.3854V35.929H73.6098Z" fill="black"/>
<path d="M11.2121 58H10.2121V59H11.2121V58ZM11.2121 33.2727V32.2727H10.2121V33.2727H11.2121ZM24.3243 34.2628L23.8543 35.1455L23.8588 35.1478L24.3243 34.2628ZM27.0771 36.9553L26.1903 37.4174L26.1903 37.4174L27.0771 36.9553ZM27.0771 44.7308L26.1931 44.2635L26.1931 44.2635L27.0771 44.7308ZM24.3364 47.3871L24.7952 48.2756L24.7997 48.2732L24.3364 47.3871ZM12.8541 48.3409H11.8541V49.3409H12.8541V48.3409ZM12.8541 45.6364V44.6364H11.8541V45.6364H12.8541ZM22.7064 45.0568L22.2772 44.1536L22.2737 44.1553L22.7064 45.0568ZM24.4692 43.4148L23.5808 42.9556L23.5789 42.9595L24.4692 43.4148ZM22.6943 36.5447L22.2436 37.4374L22.2507 37.4409L22.6943 36.5447ZM14.2064 35.929V34.929H13.2064V35.929H14.2064ZM14.2064 58V59H15.2064V58H14.2064ZM22.8513 46.892L23.7283 46.4116L23.4437 45.892H22.8513V46.892ZM28.9365 58V59H30.6246L29.8135 57.5195L28.9365 58ZM25.4593 58L24.579 58.4746L24.8623 59H25.4593V58ZM19.4706 46.892V45.892H17.7954L18.5904 47.3666L19.4706 46.892ZM12.2121 58V33.2727H10.2121V58H12.2121ZM11.2121 34.2727H19.5672V32.2727H11.2121V34.2727ZM19.5672 34.2727C21.3936 34.2727 22.8035 34.5859 23.8543 35.1455L24.7943 33.3801C23.366 32.6196 21.6045 32.2727 19.5672 32.2727V34.2727ZM23.8588 35.1478C24.9346 35.7136 25.697 36.4707 26.1903 37.4174L27.964 36.4931C27.266 35.1538 26.1932 34.1159 24.7898 33.3777L23.8588 35.1478ZM26.1903 37.4174C26.7024 38.4 26.9706 39.5379 26.9706 40.8551H28.9706C28.9706 39.2585 28.6432 37.7965 27.964 36.4931L26.1903 37.4174ZM26.9706 40.8551C26.9706 42.1726 26.7023 43.3001 26.1931 44.2635L27.9612 45.1981C28.6433 43.9078 28.9706 42.4514 28.9706 40.8551H26.9706ZM26.1931 44.2635C25.7006 45.1952 24.9421 45.9419 23.873 46.5009L24.7997 48.2732C26.1937 47.5444 27.2624 46.5202 27.9612 45.1981L26.1931 44.2635ZM23.8776 46.4985C22.8316 47.0386 21.4293 47.3409 19.6155 47.3409V49.3409C21.6331 49.3409 23.3781 49.0073 24.7952 48.2756L23.8776 46.4985ZM19.6155 47.3409H12.8541V49.3409H19.6155V47.3409ZM13.8541 48.3409V45.6364H11.8541V48.3409H13.8541ZM12.8541 46.6364H19.5189V44.6364H12.8541V46.6364ZM19.5189 46.6364C20.923 46.6364 22.1503 46.433 23.1391 45.9583L22.2737 44.1553C21.6527 44.4534 20.755 44.6364 19.5189 44.6364V46.6364ZM23.1356 45.96C24.12 45.4922 24.8841 44.7998 25.3595 43.8701L23.5789 42.9595C23.3299 43.4464 22.9188 43.8487 22.2772 44.1536L23.1356 45.96ZM25.3576 43.8739C25.816 42.9869 26.0246 41.9691 26.0246 40.8551H24.0246C24.0246 41.7212 23.8629 42.4099 23.5808 42.9556L25.3576 43.8739ZM26.0246 40.8551C26.0246 39.7399 25.8156 38.716 25.3636 37.812L23.5748 38.7064C23.8633 39.2835 24.0246 39.9902 24.0246 40.8551H26.0246ZM25.3636 37.812C24.8866 36.8579 24.1264 36.1378 23.138 35.6485L22.2507 37.4409C22.8883 37.7566 23.3113 38.1795 23.5748 38.7064L25.3636 37.812ZM23.1451 35.6521C22.1424 35.1458 20.8958 34.929 19.4706 34.929V36.929C20.7178 36.929 21.6203 37.1227 22.2436 37.4374L23.1451 35.6521ZM19.4706 34.929H14.2064V36.929H19.4706V34.929ZM13.2064 35.929V58H15.2064V35.929H13.2064ZM14.2064 57H11.2121V59H14.2064V57ZM21.9743 47.3725L28.0595 58.4805L29.8135 57.5195L23.7283 46.4116L21.9743 47.3725ZM28.9365 57H25.4593V59H28.9365V57ZM26.3395 57.5254L20.3508 46.4175L18.5904 47.3666L24.579 58.4746L26.3395 57.5254ZM19.4706 47.892H22.8513V45.892H19.4706V47.892ZM32.9601 58H31.9601V59H32.9601V58ZM32.9601 33.2727V32.2727H31.9601V33.2727H32.9601ZM47.8834 33.2727H48.8834V32.2727H47.8834V33.2727ZM47.8834 35.929V36.929H48.8834V35.929H47.8834ZM35.9545 35.929V34.929H34.9545V35.929H35.9545ZM35.9545 44.2841H34.9545V45.2841H35.9545V44.2841ZM47.1107 44.2841H48.1107V43.2841H47.1107V44.2841ZM47.1107 46.9403V47.9403H48.1107V46.9403H47.1107ZM35.9545 46.9403V45.9403H34.9545V46.9403H35.9545ZM35.9545 55.3438H34.9545V56.3438H35.9545V55.3438ZM48.0766 55.3438H49.0766V54.3438H48.0766V55.3438ZM48.0766 58V59H49.0766V58H48.0766ZM33.9601 58V33.2727H31.9601V58H33.9601ZM32.9601 34.2727H47.8834V32.2727H32.9601V34.2727ZM46.8834 33.2727V35.929H48.8834V33.2727H46.8834ZM47.8834 34.929H35.9545V36.929H47.8834V34.929ZM34.9545 35.929V44.2841H36.9545V35.929H34.9545ZM35.9545 45.2841H47.1107V43.2841H35.9545V45.2841ZM46.1107 44.2841V46.9403H48.1107V44.2841H46.1107ZM47.1107 45.9403H35.9545V47.9403H47.1107V45.9403ZM34.9545 46.9403V55.3438H36.9545V46.9403H34.9545ZM35.9545 56.3438H48.0766V54.3438H35.9545V56.3438ZM47.0766 55.3438V58H49.0766V55.3438H47.0766ZM48.0766 57H32.9601V59H48.0766V57ZM66.8032 39.4545L65.8101 39.5721L65.9146 40.4545H66.8032V39.4545ZM65.0404 36.6051L64.4917 37.4412L64.4917 37.4412L65.0404 36.6051ZM58.3756 36.1222L57.9795 35.2039L57.9762 35.2054L58.3756 36.1222ZM56.468 37.5831L55.6642 36.9881L55.6592 36.9949L56.468 37.5831ZM56.2627 41.3984L55.4285 41.9499L55.4339 41.9581L55.4395 41.9662L56.2627 41.3984ZM57.4942 42.5696L56.9617 43.4161L56.9717 43.4222L57.4942 42.5696ZM59.0638 43.3303L58.7187 44.2689L58.731 44.2732L59.0638 43.3303ZM60.5731 43.8011L60.833 42.8355L60.8276 42.8341L60.5731 43.8011ZM63.0844 44.4773L62.8245 45.4429L62.8305 45.4445L63.0844 44.4773ZM65.2336 45.1776L64.8804 46.1131L64.8835 46.1143L65.2336 45.1776ZM67.5155 46.397L66.936 47.212L66.9463 47.2192L67.5155 46.397ZM69.3266 48.353L70.1856 47.841L70.1856 47.841L69.3266 48.353ZM68.9885 54.9091L68.1498 54.3645L68.147 54.369L68.9885 54.9091ZM65.9459 57.4808L65.5162 56.5779L65.5141 56.5789L65.9459 57.4808ZM56.5042 57.5774L56.0986 58.4915L56.1007 58.4924L56.5042 57.5774ZM53.4616 55.1868L52.6487 55.7692L52.6517 55.7734L53.4616 55.1868ZM52.218 51.625V50.625H51.144L51.2205 51.6962L52.218 51.625ZM55.3089 51.625L56.3052 51.5391L56.2264 50.625H55.3089V51.625ZM56.2506 53.9432L55.5053 54.61L55.5147 54.6202L56.2506 53.9432ZM58.3515 55.2955L58.0191 56.2387L58.0299 56.2423L58.3515 55.2955ZM64.1832 55.1747L64.5602 56.1009L64.5672 56.098L64.1832 55.1747ZM66.3444 53.6051L67.1271 54.2275L67.1307 54.2229L66.3444 53.6051ZM66.453 49.2344L67.1998 48.5693L67.1998 48.5693L66.453 49.2344ZM64.642 47.9787L64.2468 48.8973L64.2468 48.8973L64.642 47.9787ZM62.2151 47.1335L61.9404 48.0951L61.9475 48.097L62.2151 47.1335ZM59.1725 46.2642L58.8962 47.2253L58.8978 47.2257L59.1725 46.2642ZM54.5844 43.8857L53.9097 44.6237L53.9097 44.6237L54.5844 43.8857ZM54.017 36.2188L53.2088 35.6298L53.2079 35.631L54.017 36.2188ZM57.0596 33.804L57.4695 34.7161L57.4721 34.7149L57.0596 33.804ZM65.5958 33.7919L65.1771 34.7L65.182 34.7023L65.5958 33.7919ZM68.5418 36.1101L67.7371 36.7037L67.7402 36.708L68.5418 36.1101ZM69.7009 39.4545V40.4545H70.7337L70.7004 39.4223L69.7009 39.4545ZM67.7962 39.3369C67.6166 37.82 66.8663 36.6072 65.5891 35.7691L64.4917 37.4412C65.2751 37.9553 65.7 38.6421 65.8101 39.5721L67.7962 39.3369ZM65.5891 35.7691C64.3637 34.9649 62.899 34.5909 61.2492 34.5909V36.5909C62.5937 36.5909 63.6565 36.893 64.4917 37.4412L65.5891 35.7691ZM61.2492 34.5909C60.0481 34.5909 58.9503 34.7852 57.9795 35.2039L58.7717 37.0404C59.4429 36.7508 60.261 36.5909 61.2492 36.5909V34.5909ZM57.9762 35.2054C57.027 35.6189 56.2421 36.2075 55.6642 36.9881L57.2717 38.1781C57.6115 37.7191 58.0983 37.3338 58.775 37.0389L57.9762 35.2054ZM55.6592 36.9949C55.0803 37.7909 54.7918 38.7025 54.7918 39.696H56.7918C56.7918 39.1119 56.9541 38.6149 57.2767 38.1713L55.6592 36.9949ZM54.7918 39.696C54.7918 40.5201 54.99 41.2866 55.4285 41.9499L57.0969 40.847C56.9075 40.5605 56.7918 40.192 56.7918 39.696H54.7918ZM55.4395 41.9662C55.8415 42.5491 56.3525 43.0328 56.9618 43.4161L58.0267 41.7231C57.6378 41.4785 57.3278 41.1815 57.0859 40.8307L55.4395 41.9662ZM56.9717 43.4222C57.5267 43.7624 58.1093 44.0448 58.7188 44.2688L59.4089 42.3917C58.9236 42.2133 58.4599 41.9886 58.0168 41.717L56.9717 43.4222ZM58.731 44.2732C59.2987 44.4736 59.8283 44.6392 60.3186 44.7682L60.8276 42.8341C60.4002 42.7216 59.9237 42.5733 59.3967 42.3873L58.731 44.2732ZM60.3131 44.7668L62.8245 45.4429L63.3444 43.5117L60.833 42.8355L60.3131 44.7668ZM62.8305 45.4445C63.4334 45.6028 64.116 45.8245 64.8804 46.1131L65.5868 44.242C64.7736 43.935 64.0234 43.6899 63.3383 43.51L62.8305 45.4445ZM64.8835 46.1143C65.5953 46.3803 66.2793 46.7449 66.936 47.212L68.0951 45.5821C67.303 45.0188 66.4656 44.5704 65.5837 44.2408L64.8835 46.1143ZM66.9463 47.2192C67.5562 47.6415 68.0629 48.1858 68.4676 48.8649L70.1856 47.841C69.6405 46.9264 68.9398 46.1668 68.0847 45.5748L66.9463 47.2192ZM68.4676 48.8649C68.8298 49.4727 69.039 50.2635 69.039 51.2869H71.039C71.039 49.9922 70.7732 48.827 70.1856 47.841L68.4676 48.8649ZM69.039 51.2869C69.039 52.4378 68.7406 53.4546 68.1498 54.3645L69.8273 55.4536C70.6371 54.2064 71.039 52.8084 71.039 51.2869H69.039ZM68.147 54.369C67.5703 55.2675 66.7105 56.0095 65.5162 56.5779L66.3757 58.3838C67.8537 57.6804 69.0224 56.7078 69.8301 55.4492L68.147 54.369ZM65.5141 56.5789C64.354 57.1343 62.8963 57.4347 61.1043 57.4347V59.4347C63.1116 59.4347 64.8816 59.0991 66.3778 58.3828L65.5141 56.5789ZM61.1043 57.4347C59.4387 57.4347 58.0489 57.1657 56.9077 56.6624L56.1007 58.4924C57.5513 59.1321 59.2282 59.4347 61.1043 59.4347V57.4347ZM56.9098 56.6634C55.764 56.1549 54.8968 55.4634 54.2714 54.6001L52.6517 55.7734C53.5074 56.9547 54.6686 57.8569 56.0986 58.4915L56.9098 56.6634ZM54.2744 54.6043C53.6579 53.7439 53.2999 52.7368 53.2154 51.5538L51.2205 51.6962C51.3292 53.2178 51.8003 54.5852 52.6487 55.7692L54.2744 54.6043ZM52.218 52.625H55.3089V50.625H52.218V52.625ZM54.3126 51.7109C54.4089 52.8284 54.7937 53.8145 55.5054 54.61L56.9959 53.2764C56.6129 52.8483 56.3698 52.289 56.3052 51.5391L54.3126 51.7109ZM55.5147 54.6202C56.1908 55.3552 57.0343 55.8916 58.0191 56.2386L58.6838 54.3523C57.9783 54.1037 57.4212 53.7386 56.9866 53.2661L55.5147 54.6202ZM58.0299 56.2423C58.9956 56.5703 60.0227 56.7301 61.1043 56.7301V54.7301C60.2219 54.7301 59.4138 54.6002 58.6731 54.3486L58.0299 56.2423ZM61.1043 56.7301C62.3557 56.7301 63.5129 56.5272 64.5602 56.1009L63.8061 54.2485C63.0342 54.5627 62.1389 54.7301 61.1043 54.7301V56.7301ZM64.5672 56.098C65.6087 55.6649 66.4753 55.0472 67.1271 54.2275L65.5617 52.9827C65.151 53.4992 64.5768 53.9279 63.7991 54.2514L64.5672 56.098ZM67.1307 54.2229C67.8074 53.3617 68.1412 52.3525 68.1412 51.2386H66.1412C66.1412 51.9278 65.9438 52.4963 65.5581 52.9873L67.1307 54.2229ZM68.1412 51.2386C68.1412 50.2216 67.8517 49.3013 67.1998 48.5693L65.7063 49.8995C65.972 50.1978 66.1412 50.6137 66.1412 51.2386H68.1412ZM67.1998 48.5693C66.6277 47.9269 65.8959 47.4294 65.0371 47.0601L64.2468 48.8973C64.8852 49.1719 65.3608 49.5116 65.7063 49.8995L67.1998 48.5693ZM65.0371 47.0601C64.2429 46.7185 63.391 46.4223 62.4828 46.17L61.9475 48.097C62.7779 48.3277 63.5438 48.5949 64.2468 48.8973L65.0371 47.0601ZM62.4898 46.172L59.4472 45.3027L58.8978 47.2257L61.9404 48.095L62.4898 46.172ZM59.4488 45.3031C57.6202 44.7774 56.2421 44.0463 55.2592 43.1476L53.9097 44.6237C55.1805 45.7856 56.8611 46.6402 58.8962 47.2253L59.4488 45.3031ZM55.2592 43.1476C54.3597 42.3253 53.8941 41.255 53.8941 39.8409H51.8941C51.8941 41.7592 52.5553 43.3854 53.9097 44.6237L55.2592 43.1476ZM53.8941 39.8409C53.8941 38.6482 54.2125 37.6509 54.826 36.8065L53.2079 35.631C52.3243 36.8472 51.8941 38.2647 51.8941 39.8409H53.8941ZM54.8252 36.8077C55.4707 35.9217 56.3424 35.2226 57.4695 34.7161L56.6497 32.8918C55.2332 33.5284 54.0764 34.4391 53.2088 35.6298L54.8252 36.8077ZM57.4721 34.7149C58.6072 34.2009 59.8929 33.9347 61.3458 33.9347V31.9347C59.6434 31.9347 58.0716 32.248 56.6471 32.893L57.4721 34.7149ZM61.3458 33.9347C62.819 33.9347 64.089 34.1984 65.1771 34.7L66.0145 32.8838C64.6234 32.2424 63.0601 31.9347 61.3458 31.9347V33.9347ZM65.182 34.7023C66.2847 35.2035 67.1252 35.8742 67.7371 36.7037L69.3465 35.5164C68.5096 34.3819 67.386 33.5072 66.0096 32.8815L65.182 34.7023ZM67.7402 36.708C68.348 37.5228 68.6676 38.4394 68.7014 39.4868L70.7004 39.4223C70.6537 37.9745 70.2006 36.6614 69.3434 35.5122L67.7402 36.708ZM69.7009 38.4545H66.8032V40.4545H69.7009V38.4545ZM73.6098 35.929H72.6098V36.929H73.6098V35.929ZM73.6098 33.2727V32.2727H72.6098V33.2727H73.6098ZM92.1553 33.2727H93.1553V32.2727H92.1553V33.2727ZM92.1553 35.929V36.929H93.1553V35.929H92.1553ZM84.3797 35.929V34.929H83.3797V35.929H84.3797ZM84.3797 58V59H85.3797V58H84.3797ZM81.3854 58H80.3854V59H81.3854V58ZM81.3854 35.929H82.3854V34.929H81.3854V35.929ZM74.6098 35.929V33.2727H72.6098V35.929H74.6098ZM73.6098 34.2727H92.1553V32.2727H73.6098V34.2727ZM91.1553 33.2727V35.929H93.1553V33.2727H91.1553ZM92.1553 34.929H84.3797V36.929H92.1553V34.929ZM83.3797 35.929V58H85.3797V35.929H83.3797ZM84.3797 57H81.3854V59H84.3797V57ZM82.3854 58V35.929H80.3854V58H82.3854ZM81.3854 34.929H73.6098V36.929H81.3854V34.929Z" fill="black"/>
</g>
</g>
<defs>
<filter id="filter0_d_15_7" x="7.2121" y="32.9347" width="88.9432" height="33.5" filterUnits="userSpaceOnUse" color-interpolation-filters="sRGB">
<feFlood flood-opacity="0" result="BackgroundImageFix"/>
<feColorMatrix in="SourceAlpha" type="matrix" values="0 0 0 0 0 0 0 0 0 0 0 0 0 0 0 0 0 0 127 0" result="hardAlpha"/>
<feOffset dy="4"/>
<feGaussianBlur stdDeviation="2"/>
<feComposite in2="hardAlpha" operator="out"/>
<feColorMatrix type="matrix" values="0 0 0 0 0 0 0 0 0 0 0 0 0 0 0 0 0 0 0.25 0"/>
<feBlend mode="normal" in2="BackgroundImageFix" result="effect1_dropShadow_15_7"/>
<feBlend mode="normal" in="SourceGraphic" in2="effect1_dropShadow_15_7" result="shape"/>
</filter>
<clipPath id="clip0_15_7">
<rect width="96" height="96" fill="white"/>
</clipPath>
</defs>
</svg>
