<svg width="80" height="90" viewBox="0 0 80 90" fill="none" xmlns="http://www.w3.org/2000/svg">
<g>
<path d="M42.8466 43.7008L40.1414 52.2789C38.6989 57.6039 38.8216 59.2836 39.5532 60.5226C39.7338 60.8271 40.2276 61.8238 40.9178 64.4863C41.9198 68.3402 42.8022 74.1589 42.8238 74.4373C42.6788 77.9942 42.7572 81.7628 43.0448 85.371H7.34256C3.30569 85.371 0.00250244 82.0678 0.00250244 78.0311V11.6025C0.00250244 7.56562 3.3055 4.26187 7.34256 4.26187H62.2816C53.8673 13.1878 45.5301 30.1249 42.8466 43.7008V43.7008ZM81.6284 2.088C91.6962 11.0691 81.6989 31.6009 72.5224 46.0536C65.8501 48.198 58.0729 52.9341 58.0729 52.9341C58.0729 52.9341 58.7198 52.5906 61.1208 51.5835C62.7483 50.8993 67.6079 49.7439 70.5672 49.0691C65.6268 56.5178 61.3992 61.7314 61.3992 61.7314C61.3992 61.7314 52.7798 65.2341 50.1141 73.3826C51.6591 64.6907 54.2228 55.6189 57.8406 45.9514C61.0716 37.3185 71.8649 14.0057 79.8396 6.80362C71.0901 13.7773 61.5303 28.3796 54.6396 46.5795C50.5613 58.6358 48.3541 70.203 47.9946 79.7949C47.7571 86.07 48.2995 91.5114 49.6351 95.6634L49.0176 96C47.7076 92.6003 46.5053 86.6256 46.7929 74.3822C46.7498 73.836 46.7241 73.4811 46.7241 73.4811C46.7241 73.4811 45.9288 68.1246 44.7848 63.7245C44.2782 61.7713 43.7014 60.0053 43.096 58.9817C42.784 58.4535 43.1298 56.2839 44.0005 53.0704C45.475 55.6376 47.0658 58.4169 47.6768 60.6909C47.6768 60.6909 46.4986 54.6291 44.5653 51.0915C44.989 49.6614 45.4953 48.0808 46.0681 46.3909C47.494 48.8846 48.9483 51.2574 49.5284 53.634C48.8939 50.5978 48.0349 47.574 46.6969 44.5764C49.1288 31.9209 56.9568 15.3497 65.3899 6.40331C69.8913 1.60012 76.0947 -2.69869 81.6284 2.088V2.088Z" fill="black"/>
</g>
</svg>
