<svg width="97" height="96" viewBox="0 0 97 96" fill="none" xmlns="http://www.w3.org/2000/svg">
<g clip-path="url(#clip0_15_36)">
<path d="M48.88 0C75.364 0 96.88 21.516 96.88 48C96.88 74.484 75.364 96 48.88 96C22.396 96 0.880005 74.484 0.880005 48C0.880005 21.516 22.396 0 48.88 0ZM61.99 70.719C60.5189 71.5707 59.4463 72.972 59.0083 74.6146C58.5703 76.2571 58.8028 78.0063 59.6545 79.4775C60.5062 80.9487 61.9075 82.0212 63.5501 82.4592C65.1926 82.8972 66.9418 82.6647 68.413 81.813C69.1417 81.3925 69.7803 80.8322 70.292 80.1644C70.8036 79.4965 71.1784 78.7341 71.3947 77.921C71.611 77.108 71.6646 76.2602 71.5524 75.4263C71.4402 74.5925 71.1645 73.789 70.741 73.062C70.3218 72.332 69.7624 71.692 69.0951 71.1789C68.4278 70.6657 67.6656 70.2895 66.8525 70.0717C66.0393 69.854 65.1911 69.7991 64.3567 69.9102C63.5222 70.0213 62.7179 70.2961 61.99 70.719V70.719ZM48.88 66.72C46.1554 66.7212 43.4631 66.1295 40.99 64.986L36.538 72.954C40.3753 74.8561 44.6002 75.8459 48.883 75.846C51.46 75.846 53.962 75.486 56.32 74.814C56.5352 73.499 57.0391 72.248 57.7954 71.1509C58.5516 70.0538 59.5416 69.1379 60.694 68.469C61.8487 67.8 63.1379 67.3968 64.468 67.2889C65.7981 67.1809 67.1356 67.3709 68.383 67.845C73.2851 63.0574 76.2356 56.6207 76.663 49.782L67.522 49.656C67.1082 54.315 64.9653 58.6504 61.5151 61.8086C58.0649 64.9667 53.5574 66.7188 48.88 66.72V66.72ZM30.16 48C30.1583 44.9966 30.8801 42.037 32.2645 39.3717C33.6489 36.7064 35.655 34.4138 38.113 32.688L33.442 24.843C27.7517 28.623 23.6478 34.3613 21.91 40.968C22.9528 41.8048 23.7935 42.8659 24.3695 44.0725C24.9456 45.2791 25.2421 46.6 25.237 47.937C25.237 50.751 23.941 53.217 21.91 54.891C23.6455 61.5027 27.7495 67.2465 33.442 71.031L38.113 63.171C35.6535 61.4797 33.6437 59.214 32.2578 56.5704C30.8719 53.9267 30.1519 50.9849 30.16 48V48ZM16.24 41.595C12.694 41.595 9.835 44.454 9.835 48C9.835 51.546 12.694 54.405 16.24 54.405C19.786 54.405 22.645 51.546 22.645 48C22.645 44.454 19.786 41.595 16.24 41.595ZM48.88 29.28C53.5574 29.2812 58.0649 31.0333 61.5151 34.1914C64.9653 37.3496 67.1082 41.685 67.522 46.344L76.663 46.203C76.2221 39.3676 73.2737 32.9356 68.383 28.14C65.944 29.061 63.133 28.92 60.694 27.531C59.5391 26.8577 58.5479 25.9367 57.7916 24.8344C57.0352 23.7321 56.5327 22.4758 56.32 21.156C53.896 20.4958 51.3953 20.1599 48.883 20.157C44.5998 20.1537 40.3741 21.1436 36.538 23.049L40.99 31.017C43.4632 29.8739 46.1554 29.2822 48.88 29.283V29.28ZM61.99 25.281C63.464 26.1293 65.2139 26.359 66.8569 25.9198C68.4998 25.4807 69.9018 24.4085 70.756 22.938C71.3905 21.8397 71.6852 20.578 71.6027 19.3123C71.5202 18.0466 71.0643 16.8337 70.2926 15.8271C69.5209 14.8205 68.4681 14.0652 67.2673 13.6569C66.0664 13.2485 64.7714 13.2054 63.5461 13.5329C62.3207 13.8604 61.2199 14.5439 60.3829 15.4969C59.546 16.45 59.0103 17.6298 58.8438 18.8872C58.6773 20.1446 58.8873 21.4231 59.4473 22.5612C60.0073 23.6993 60.8921 24.6458 61.99 25.281V25.281Z" fill="black"/>
</g>
<defs>
<clipPath id="clip0_15_36">
<rect width="96" height="96" fill="white" transform="translate(0.880005)"/>
</clipPath>
</defs>
</svg>
