<svg width="96" height="96" viewBox="0 0 96 96" fill="none" xmlns="http://www.w3.org/2000/svg">
<path d="M94.572 19.748C91.232 21.228 87.644 22.228 83.872 22.68C87.764 20.3512 90.6758 16.6859 92.064 12.368C88.4074 14.54 84.4054 16.0688 80.232 16.888C77.4255 13.8915 73.7082 11.9053 69.6573 11.2379C65.6064 10.5705 61.4484 11.2592 57.829 13.197C54.2095 15.1349 51.3311 18.2135 49.6406 21.9548C47.9501 25.6962 47.5421 29.891 48.48 33.888C41.0707 33.516 33.8225 31.5902 27.2057 28.2356C20.5889 24.881 14.7514 20.1726 10.072 14.416C8.472 17.176 7.552 20.376 7.552 23.784C7.55022 26.852 8.30573 29.873 9.75152 32.5789C11.1973 35.2849 13.2886 37.5922 15.84 39.296C12.8811 39.2019 9.98749 38.4023 7.4 36.964V37.204C7.3997 41.507 8.88813 45.6775 11.6127 49.008C14.3373 52.3385 18.1303 54.6237 22.348 55.476C19.6031 56.2189 16.7254 56.3283 13.932 55.796C15.122 59.4985 17.44 62.7361 20.5615 65.0557C23.683 67.3753 27.4517 68.6607 31.34 68.732C24.7393 73.9137 16.5876 76.7244 8.196 76.712C6.70953 76.7124 5.22431 76.6256 3.748 76.452C12.2659 81.9287 22.1814 84.8353 32.308 84.824C66.588 84.824 85.328 56.432 85.328 31.808C85.328 31.008 85.308 30.2 85.272 29.4C88.9172 26.7639 92.0636 23.4996 94.564 19.76L94.572 19.748V19.748Z" fill="black"/>
</svg>
