<svg width="96" height="96" viewBox="0 0 96 96" fill="none" xmlns="http://www.w3.org/2000/svg">
<g clip-path="url(#clip0_15_10)">
<path d="M30.008 0H40.32V4.312H34.32V8.624H40.32V12.936H30.008V0ZM42.38 0H52.696V3.752H46.696V4.5H52.696V13.124H42.38V9.188H48.38V8.436H42.38V0ZM54.76 0H65.068V3.752H59.068V4.5H65.068V13.124H54.76V9.188H60.76V8.436H54.76V0Z" fill="black"/>
<path fill-rule="evenodd" clip-rule="evenodd" d="M47.964 96L20.188 88.288L12 18.868H84L75.816 88.28L47.964 96ZM28.188 50.292L28.952 58.804H58.46L57.472 69.844L47.976 72.412H47.968L38.488 69.852L37.88 63.064H29.332L30.524 76.432L47.964 81.272L65.432 76.432L67.56 52.576L67.768 50.292L69.304 33.056H26.656L27.432 41.572H59.976L59.2 50.292H28.188V50.292Z" fill="black"/>
</g>
<defs>
<clipPath id="clip0_15_10">
<rect width="96" height="96" fill="white"/>
</clipPath>
</defs>
</svg>
