<svg width="96" height="96" viewBox="0 0 96 96" fill="none" xmlns="http://www.w3.org/2000/svg">
<path fill-rule="evenodd" clip-rule="evenodd" d="M60.688 0H43.984V23.728C41.6064 23.1544 39.1655 22.8856 36.72 22.928C19.264 22.924 8 33.22 8 49.092C8 65.564 18.62 74.144 39.02 74.164C45.832 74.164 52.132 73.564 60.688 72.044V0V0ZM38.936 35.908C41 35.908 42.616 36.108 44.568 36.708V61.7C42.184 62 40.68 62.1 38.832 62.1C30.272 62.1 25.612 57.532 25.612 49.26C25.612 40.76 30.492 35.908 38.936 35.908Z" fill="black"/>
<path d="M88 60.932V24.86H71.32V55.56C71.32 69.108 70.568 74.256 68.18 78.704C65.9 83.052 62.332 85.904 54.96 89.128L70.46 96C77.832 92.552 81.4 89.428 84.108 84.48C87.012 79.328 88 73.352 88 60.932V60.932ZM86.336 0H69.64V15.972H86.34V0H86.336Z" fill="black"/>
</svg>
