<svg width="96" height="96" viewBox="0 0 96 96" fill="none" xmlns="http://www.w3.org/2000/svg">
<g clip-path="url(#clip0_15_17)">
<path d="M19.281 69.093C16.548 69.093 14.064 66.861 14.064 64.14C14.064 61.419 16.296 59.172 19.281 59.172C22.281 59.172 24.534 61.407 24.534 64.14C24.534 66.861 22.035 69.093 19.299 69.093H19.281ZM83.328 42.048C82.779 38.079 80.328 34.845 77.091 32.376L75.828 31.377L74.811 32.61C72.843 34.845 72.048 38.814 72.294 41.781C72.531 44.034 73.245 46.266 74.514 48C73.482 48.531 72.234 48.999 71.262 49.515C68.982 50.262 66.762 50.514 64.545 50.514H0.39L0.138 51.981C-0.347258 56.8203 0.428936 61.7028 2.391 66.153L3.375 67.89V68.121C9.375 78.06 20.046 82.53 31.686 82.53C54.063 82.53 72.405 72.858 81.105 51.999C86.808 52.248 92.562 50.763 95.262 45.294L95.982 44.061L94.794 43.308C91.545 41.325 87.105 41.061 83.391 42.06L83.31 42.075L83.328 42.048ZM51.297 38.079H41.58V47.763H51.297V38.079ZM51.297 25.908H41.58V35.592H51.297V25.908ZM51.297 13.485H41.58V23.172H51.297V13.485ZM63.171 38.079H53.514V47.763H63.201V38.079H63.171ZM27.189 38.079H17.532V47.763H27.219V38.079H27.189ZM39.297 38.079H29.706V47.763H39.363V38.079H39.297ZM15.189 38.079H5.592V47.763H15.312V38.079H15.189ZM39.297 25.908H29.706V35.592H39.363V25.92L39.297 25.908ZM27.123 25.908H17.547V35.592H27.204V25.92L27.141 25.908H27.123Z" fill="black"/>
</g>
<defs>
<clipPath id="clip0_15_17">
<rect width="96" height="96" fill="white"/>
</clipPath>
</defs>
</svg>
