<svg width="96" height="96" viewBox="0 0 96 96" fill="none" xmlns="http://www.w3.org/2000/svg">
<path d="M20.956 60.252L28.84 9.524C28.8978 9.14832 29.0724 8.80036 29.3389 8.52935C29.6054 8.25834 29.9504 8.078 30.3251 8.01386C30.6998 7.94973 31.0851 8.00503 31.4266 8.17196C31.7681 8.33888 32.0484 8.60897 32.228 8.944L40.708 24.86L20.956 60.252ZM76.96 72.56L69.452 25.876C69.3955 25.5493 69.2506 25.2443 69.033 24.994C68.8154 24.7438 68.5335 24.5579 68.2178 24.4565C67.9021 24.3552 67.5647 24.3421 67.2421 24.4189C66.9196 24.4957 66.6242 24.6593 66.388 24.892L19.04 72.56L45.24 87.324C46.884 88.244 48.888 88.244 50.532 87.324L76.96 72.56ZM55.668 31.82L49.6 20.208C49.4466 19.9165 49.2165 19.6724 48.9345 19.5022C48.6525 19.3319 48.3294 19.2419 48 19.2419C47.6706 19.2419 47.3474 19.3319 47.0655 19.5022C46.7835 19.6724 46.5534 19.9165 46.4 20.208L19.756 67.956L55.668 31.82Z" fill="black"/>
</svg>
