<svg width="96" height="96" viewBox="0 0 96 96" fill="none" xmlns="http://www.w3.org/2000/svg">
<g clip-path="url(#clip0_15_19)">
<path d="M94.188 43.722L52.272 1.812C51.6981 1.23781 51.0167 0.782321 50.2667 0.471556C49.5167 0.160791 48.7128 0.000839233 47.901 0.000839233C47.0892 0.000839233 46.2853 0.160791 45.5353 0.471556C44.7853 0.782321 44.1039 1.23781 43.53 1.812L34.83 10.512L45.87 21.552C47.172 21.1075 48.5728 21.0379 49.9125 21.3513C51.2521 21.6647 52.4767 22.3484 53.4464 23.3244C54.4161 24.3003 55.0919 25.5293 55.3967 26.8709C55.7015 28.2126 55.6229 29.6129 55.17 30.912L65.808 41.556C67.3819 41.0018 69.0975 41.0002 70.6725 41.5512C72.2475 42.1023 73.5878 43.1733 74.4728 44.5878C75.3579 46.0023 75.7348 47.6761 75.5416 49.3334C75.3485 50.9908 74.5966 52.533 73.41 53.706C72.2087 54.9147 70.625 55.6688 68.9295 55.8395C67.234 56.0102 65.5318 55.5869 64.1137 54.642C62.6955 53.697 61.6495 52.289 61.1542 50.6585C60.6589 49.028 60.7451 47.2761 61.398 45.702L51.48 35.778V61.896C52.9875 62.6422 54.1938 63.8826 54.8977 65.4104C55.6016 66.9382 55.7606 68.661 55.3482 70.2918C54.9359 71.9226 53.977 73.3628 52.6315 74.3724C51.2861 75.382 49.6352 75.8999 47.9541 75.8399C46.2731 75.7798 44.6634 75.1454 43.3933 74.0425C42.1233 72.9395 41.2697 71.4346 40.9747 69.7785C40.6797 68.1224 40.9612 66.4153 41.7723 64.9416C42.5834 63.468 43.8751 62.3168 45.432 61.68V35.322C44.5337 34.9539 43.7172 34.4117 43.0295 33.7266C42.3418 33.0414 41.7964 32.227 41.425 31.3301C41.0535 30.4332 40.8632 29.4717 40.8651 28.5009C40.867 27.5302 41.061 26.5694 41.436 25.674L30.558 14.79L1.818 43.53C1.24381 44.1039 0.788318 44.7853 0.477553 45.5353C0.166788 46.2853 0.00683594 47.0892 0.00683594 47.901C0.00683594 48.7128 0.166788 49.5167 0.477553 50.2667C0.788318 51.0167 1.24381 51.6981 1.818 52.272L43.734 94.188C44.3079 94.7622 44.9893 95.2177 45.7393 95.5285C46.4893 95.8392 47.2932 95.9992 48.105 95.9992C48.9168 95.9992 49.7207 95.8392 50.4707 95.5285C51.2207 95.2177 51.9021 94.7622 52.476 94.188L94.194 52.47C95.3522 51.3102 96.0027 49.7381 96.0027 48.099C96.0027 46.4599 95.3522 44.8878 94.194 43.728" fill="black"/>
</g>
<defs>
<clipPath id="clip0_15_19">
<rect width="96" height="96" fill="white"/>
</clipPath>
</defs>
</svg>
