<svg width="97" height="96" viewBox="0 0 97 96" fill="none" xmlns="http://www.w3.org/2000/svg">
<path d="M69.397 0C65.6637 0.0284067 61.952 0.569463 58.366 1.608L58.117 1.689C55.8608 1.29811 53.5783 1.07848 51.289 1.032C46.57 0.951 42.52 2.091 39.256 3.999C36.037 2.892 29.365 0.951 22.333 1.344C17.446 1.608 12.1 3.093 8.128 7.281C4.192 11.454 2.101 17.922 2.536 26.736C2.659 29.157 3.349 33.108 4.504 38.247C5.644 43.374 7.255 49.374 9.271 54.858C11.287 60.327 13.486 65.247 16.927 68.589C18.643 70.26 21.019 71.685 23.815 71.562C25.771 71.481 27.535 70.623 29.068 69.357C29.815 70.341 30.616 70.761 31.333 71.154C32.257 71.655 33.13 71.997 34.054 72.219C35.71 72.639 38.539 73.188 41.851 72.624C43.057 72.407 44.2325 72.0454 45.352 71.547L45.493 75.468C45.664 79.608 45.778 83.436 47.008 86.796C47.212 87.345 47.761 90.156 49.915 92.655C52.087 95.154 56.302 96.702 61.132 95.67C64.525 94.95 68.851 93.639 71.728 89.547C74.572 85.515 75.853 79.719 76.105 70.311C76.165 69.795 76.246 69.375 76.321 68.967L76.993 69.03H77.074C80.698 69.186 84.637 68.67 87.934 67.137C90.838 65.793 93.043 64.434 94.651 62.013C95.044 61.416 95.494 60.684 95.608 59.433C95.731 58.2 95.011 56.244 93.823 55.341C91.45 53.529 89.95 54.216 88.339 54.561C86.7612 54.9009 85.1554 55.0938 83.542 55.137C88.165 47.358 91.477 39.078 93.37 31.761C94.495 27.432 95.122 23.448 95.167 19.965C95.23 16.482 94.936 13.404 92.854 10.734C86.323 2.406 77.149 0.09 70.057 0.015H69.4L69.397 0ZM69.208 2.565C75.913 2.502 84.487 4.377 90.643 12.249C92.035 14.016 92.443 16.593 92.395 19.782C92.347 22.971 91.756 26.766 90.676 30.939C88.6 39.036 84.643 48.438 79.099 56.895C79.2897 57.0388 79.4998 57.1549 79.723 57.24C80.878 57.723 83.518 58.128 88.798 57.051C90.127 56.766 91.099 56.583 92.113 57.348C92.3591 57.5555 92.5534 57.8176 92.6805 58.1134C92.8076 58.4092 92.8639 58.7306 92.845 59.052C92.7904 59.5392 92.6071 60.003 92.314 60.396C91.297 61.923 89.287 63.381 86.707 64.584C84.427 65.643 81.142 66.192 78.256 66.225C76.789 66.24 75.445 66.129 74.299 65.769L74.239 65.757C73.798 69.99 72.787 78.366 72.127 82.176C71.599 85.251 70.675 87.708 68.911 89.535C67.144 91.38 64.66 92.472 61.3 93.192C57.145 94.083 54.127 93.129 52.177 91.488C50.227 89.847 49.333 87.66 48.802 86.331C48.43 85.41 48.241 84.222 48.055 82.626C47.8508 80.7205 47.7147 78.8082 47.647 76.893C47.524 73.533 47.476 70.173 47.524 66.798C45.7906 68.3873 43.6373 69.4452 41.32 69.846C38.557 70.314 36.103 69.846 34.636 69.486C33.9122 69.3014 33.214 69.0283 32.557 68.673C31.87 68.313 31.228 67.908 30.793 67.092C30.5423 66.6247 30.4648 66.0839 30.574 65.565C30.7037 65.0379 31.007 64.5698 31.435 64.236C32.23 63.591 33.28 63.237 34.855 62.907C37.732 62.31 38.746 61.908 39.355 61.419C39.871 61.014 40.468 60.171 41.494 58.935C41.494 58.89 41.494 58.827 41.479 58.779C39.6199 58.7224 37.8001 58.2302 36.166 57.342C35.575 57.966 32.494 61.218 28.762 65.718C27.199 67.59 25.465 68.67 23.623 68.751C21.796 68.826 20.134 67.908 18.73 66.546C15.919 63.81 13.666 59.106 11.713 53.793C9.76 48.48 8.182 42.561 7.042 37.53C5.917 32.481 5.245 28.419 5.149 26.466C4.729 18.138 6.682 12.531 10.024 8.982C13.366 5.433 17.947 4.107 22.417 3.843C30.433 3.39 38.056 6.186 39.589 6.78C42.556 4.764 46.384 3.516 51.166 3.591C53.4322 3.62433 55.687 3.91826 57.886 4.467L57.967 4.419C58.9345 4.08393 59.92 3.80348 60.919 3.579C63.6341 2.94181 66.4104 2.60082 69.199 2.562L69.208 2.565ZM69.817 5.235H69.226C66.946 5.262 64.645 5.532 62.413 6.015C67.396 8.22 71.161 11.607 73.816 15.015C75.661 17.358 77.176 19.935 78.331 22.686C78.787 23.751 79.084 24.639 79.24 25.326C79.333 25.671 79.381 25.965 79.411 26.262C79.411 26.418 79.426 26.577 79.348 26.841C79.348 26.856 79.333 26.889 79.333 26.904C79.462 30.405 78.586 32.775 78.472 36.12C78.397 38.544 79.021 41.388 79.177 44.496C79.318 47.415 78.961 50.619 77.068 53.775C77.224 53.964 77.365 54.15 77.521 54.354C82.537 46.446 86.161 37.713 88.084 30.258C89.116 26.241 89.659 22.602 89.707 19.731C89.755 16.854 89.224 14.76 88.534 13.887C83.158 7.026 75.895 5.274 69.814 5.232L69.817 5.235ZM50.644 6.264C45.928 6.279 42.535 7.704 39.961 9.843C37.3 12.063 35.521 15.078 34.366 18.186C32.974 21.858 32.491 25.419 32.302 27.843L32.365 27.81C34.0306 26.8773 35.8191 26.1835 37.678 25.749C39.679 25.278 41.851 25.137 43.801 25.905C45.772 26.652 47.38 28.449 47.974 31.152C50.791 44.184 47.101 49.029 45.742 52.683C45.226 54.012 44.773 55.356 44.413 56.73C44.584 56.697 44.758 56.649 44.929 56.634C45.898 56.559 46.645 56.871 47.086 57.057C48.463 57.633 49.399 58.821 49.915 60.18C50.0417 60.551 50.135 60.9325 50.194 61.32C50.2457 61.4821 50.273 61.6509 50.275 61.821C50.1175 66.804 50.1325 71.791 50.32 76.773C50.416 78.93 50.557 80.82 50.728 82.32C50.899 83.805 51.133 84.945 51.292 85.335C51.805 86.616 52.555 88.287 53.917 89.427C55.261 90.57 57.196 91.32 60.745 90.57C63.82 89.898 65.713 88.989 66.976 87.678C68.245 86.349 68.992 84.522 69.475 81.726C70.21 77.523 71.662 65.334 71.836 63.054C71.761 61.317 72.007 59.991 72.571 58.974C73.132 57.942 74.008 57.303 74.776 56.958C75.148 56.787 75.508 56.679 75.805 56.583C75.4907 56.1446 75.1676 55.7125 74.836 55.287C73.741 53.9584 72.841 52.4806 72.163 50.898C71.8512 50.2344 71.5068 49.5866 71.131 48.957C70.603 48.006 69.931 46.8 69.226 45.441C67.819 42.753 66.289 39.474 65.491 36.285C64.696 33.096 64.588 29.802 66.619 27.489C68.416 25.425 71.587 24.57 76.318 25.053C76.177 24.63 76.102 24.27 75.865 23.724C74.7889 21.1966 73.386 18.8214 71.692 16.659C67.675 11.52 61.159 6.423 51.115 6.252L50.644 6.264ZM24.085 6.468C23.5796 6.46747 23.0743 6.48347 22.57 6.516C18.523 6.753 14.71 7.92 11.974 10.812C9.241 13.719 7.447 18.453 7.834 26.313C7.915 27.813 8.554 31.968 9.661 36.921C10.774 41.877 12.349 47.706 14.242 52.86C16.129 57.999 18.415 62.484 20.602 64.608C21.694 65.655 22.645 66.093 23.506 66.063C24.367 66.015 25.414 65.514 26.695 63.984C29.0197 61.1791 31.4329 58.4487 33.931 55.797C32.1593 54.2547 30.8042 52.2914 29.9906 50.0879C29.1769 47.8844 28.9308 45.5116 29.275 43.188C29.68 40.236 29.743 37.467 29.68 35.28C29.635 33.156 29.491 31.752 29.491 30.861V30.765L29.476 30.738C29.476 26.127 30.292 21.567 31.852 17.238C32.977 14.25 34.636 11.238 37.132 8.781C34.681 7.968 30.319 6.753 25.603 6.516C25.0987 6.48357 24.5934 6.46756 24.088 6.468H24.085ZM73.675 27.591C70.96 27.639 69.442 28.344 68.632 29.247C67.504 30.546 67.396 32.826 68.101 35.64C68.8 38.451 70.258 41.592 71.617 44.205C72.289 45.516 72.946 46.689 73.474 47.64C74.023 48.609 74.413 49.281 74.647 49.875C74.866 50.406 75.118 50.874 75.367 51.312C76.414 49.092 76.603 46.92 76.492 44.64C76.351 41.829 75.697 38.952 75.805 36.048C75.916 32.64 76.588 30.42 76.636 27.795C75.6562 27.6654 74.6693 27.5973 73.681 27.591H73.675ZM40.741 28.065C39.913 28.065 39.085 28.173 38.272 28.362C36.6607 28.7495 35.1096 29.3541 33.661 30.159C33.1735 30.4228 32.7089 30.7269 32.272 31.068L32.176 31.143C32.209 31.74 32.317 33.144 32.365 35.238C32.413 37.518 32.365 40.422 31.93 43.566C30.961 50.409 35.929 56.067 41.758 56.082C42.103 54.675 42.661 53.25 43.225 51.753C44.848 47.376 48.037 44.19 45.349 31.722C44.914 29.691 44.038 28.863 42.832 28.395C42.1609 28.1588 41.4521 28.0479 40.741 28.068V28.065ZM72.412 28.875H72.616C72.865 28.89 73.117 28.908 73.333 28.968C73.528 29.0062 73.7142 29.0805 73.882 29.187C73.96 29.2338 74.0269 29.2969 74.0781 29.372C74.1294 29.4471 74.1638 29.5324 74.179 29.622V29.655C74.1782 29.8469 74.1297 30.0355 74.038 30.204C73.9199 30.4195 73.7737 30.6182 73.603 30.795C73.1996 31.246 72.6527 31.5438 72.055 31.638C71.4766 31.7122 70.8914 31.5677 70.414 31.233C70.2249 31.0958 70.0518 30.9378 69.898 30.762C69.763 30.62 69.675 30.4398 69.646 30.246C69.6284 30.0611 69.6845 29.8768 69.802 29.733C69.9409 29.591 70.0995 29.4698 70.273 29.373C70.66 29.154 71.176 28.998 71.773 28.917C71.989 28.89 72.208 28.872 72.412 28.857V28.875ZM41.128 29.547C41.332 29.547 41.569 29.562 41.788 29.592C42.412 29.688 42.943 29.844 43.363 30.093C43.5689 30.1933 43.7502 30.3377 43.894 30.516C44.0498 30.704 44.1281 30.9443 44.113 31.188C44.0703 31.419 43.9667 31.6344 43.813 31.812C43.6484 32.0124 43.4542 32.1864 43.237 32.328C42.7171 32.7015 42.0748 32.8634 41.44 32.781C40.7969 32.6776 40.2079 32.3593 39.769 31.878C39.5847 31.6799 39.4264 31.4591 39.298 31.221C39.158 31.0086 39.0974 30.7536 39.127 30.501C39.19 30.081 39.55 29.844 39.895 29.721C40.288 29.592 40.708 29.55 41.128 29.565V29.547ZM77.365 58.92H77.35C76.774 59.139 76.291 59.22 75.883 59.409C75.4701 59.5648 75.1307 59.8699 74.932 60.264C74.665 60.72 74.464 61.533 74.524 62.919C74.7044 63.0488 74.9066 63.1453 75.121 63.204C75.793 63.408 76.948 63.549 78.229 63.531C80.776 63.498 83.917 62.907 85.588 62.124C86.9537 61.4911 88.2216 60.6657 89.353 59.673C83.776 60.813 80.638 60.516 78.697 59.721C78.2201 59.5147 77.7732 59.2453 77.368 58.92H77.365ZM45.241 59.295H45.16C44.944 59.31 44.644 59.391 44.035 60.048C42.643 61.608 42.16 62.592 41.02 63.501C39.865 64.422 38.38 64.908 35.395 65.517C34.7583 65.6309 34.1384 65.8245 33.55 66.093C33.658 66.189 33.658 66.222 33.829 66.297C34.27 66.549 34.828 66.753 35.284 66.876C36.565 67.188 38.656 67.563 40.861 67.188C43.048 66.813 45.328 65.763 47.284 63.033C47.629 62.565 47.656 61.86 47.377 61.11C47.098 60.378 46.486 59.721 46.066 59.55C45.8031 59.4277 45.5244 59.3429 45.238 59.298L45.241 59.295Z" fill="black"/>
</svg>
