<svg width="96" height="96" viewBox="0 0 96 96" fill="none" xmlns="http://www.w3.org/2000/svg">
<g clip-path="url(#clip0_15_2)">
<path d="M47.656 0C23.28 0 24.8 10.624 24.8 10.624L24.828 21.632H48.084V24.936H15.6C15.6 24.936 0 23.156 0 47.876C0 72.596 13.612 71.716 13.612 71.716H21.732V60.248C21.732 60.248 21.296 46.568 35.132 46.568H58.196C58.196 46.568 71.156 46.776 71.156 33.976V12.808C71.156 12.808 73.12 0 47.652 0H47.656ZM34.832 7.4C37.144 7.4 39.016 9.28 39.016 11.608C39.016 13.932 37.144 15.812 34.832 15.812C32.516 15.812 30.648 13.932 30.648 11.608C30.648 9.28 32.516 7.4 34.832 7.4Z" fill="black"/>
<path d="M48.348 96C72.716 96 71.196 85.376 71.196 85.376L71.168 74.368H47.912V71.064H80.404C80.404 71.064 96.004 72.844 96.004 48.124C96.004 23.404 82.388 24.284 82.388 24.284H74.268V35.752C74.268 35.752 74.704 49.432 60.868 49.432H37.808C37.808 49.432 24.848 49.224 24.848 62.024V83.192C24.848 83.192 22.88 96 48.348 96ZM61.172 88.6C58.856 88.6 56.988 86.72 56.988 84.392C56.988 82.068 58.856 80.188 61.172 80.188C63.484 80.188 65.356 82.068 65.356 84.392C65.356 86.72 63.484 88.6 61.172 88.6Z" fill="black"/>
</g>
<defs>
<clipPath id="clip0_15_2">
<rect width="96" height="96" fill="white"/>
</clipPath>
</defs>
</svg>
