<svg width="96" height="96" viewBox="0 0 96 96" fill="none" xmlns="http://www.w3.org/2000/svg">
<path d="M34.212 10.08C31.677 9.909 29.184 10.365 27 11.625C24.087 13.305 22.146 16.176 21.105 19.485C20.064 22.785 19.824 26.595 20.205 30.756C20.241 31.176 20.316 31.617 20.367 32.046C19.971 32.214 19.551 32.37 19.167 32.55C15.375 34.299 12.198 36.411 9.855 38.964C7.515 41.52 6 44.634 6 48C6 51.363 7.515 54.48 9.855 57.036C12.195 59.589 15.375 61.701 19.167 63.45C19.551 63.63 19.971 63.786 20.367 63.954C20.316 64.383 20.241 64.824 20.202 65.244C19.824 69.405 20.064 73.212 21.105 76.518C22.146 79.824 24.087 82.692 27 84.375C29.913 86.055 33.366 86.304 36.75 85.554C40.134 84.804 43.551 83.103 46.962 80.694C47.307 80.454 47.652 80.169 48 79.911C48.345 80.169 48.69 80.451 49.038 80.694C52.449 83.103 55.866 84.804 59.25 85.554C62.634 86.304 66.087 86.058 69 84.375C71.913 82.695 73.854 79.824 74.895 76.515C75.936 73.215 76.176 69.405 75.795 65.244C75.759 64.824 75.684 64.383 75.633 63.954C76.029 63.786 76.449 63.63 76.833 63.45C80.625 61.701 83.802 59.589 86.145 57.036C88.485 54.48 90 51.366 90 48C90 44.637 88.485 41.52 86.145 38.964C83.805 36.411 80.625 34.299 76.833 32.55C76.449 32.37 76.029 32.214 75.633 32.046C75.684 31.617 75.759 31.176 75.798 30.756C76.176 26.595 75.936 22.788 74.895 19.482C73.854 16.176 71.913 13.308 69 11.625C66.087 9.945 62.634 9.696 59.25 10.446C55.866 11.196 52.449 12.897 49.038 15.306C48.693 15.546 48.348 15.831 48 16.089C47.655 15.831 47.31 15.549 46.962 15.306C43.551 12.897 40.134 11.196 36.75 10.446C35.9146 10.2588 35.0661 10.1354 34.212 10.077V10.08ZM33.822 16.056C34.332 16.092 34.875 16.176 35.454 16.308C37.722 16.809 40.437 18.081 43.302 20.073C40.7866 22.4673 38.455 25.0476 36.327 27.792C32.8914 28.2606 29.4958 28.9866 26.169 29.964C25.875 26.49 26.127 23.502 26.823 21.288C27.54 19.02 28.608 17.628 30 16.821C31.044 16.221 32.286 15.939 33.819 16.056H33.822ZM62.181 16.056C63.711 15.939 64.956 16.221 66 16.821C67.392 17.625 68.46 19.02 69.177 21.288C69.873 23.502 70.125 26.49 69.831 29.964C66.5042 28.9866 63.1086 28.2606 59.673 27.792C57.545 25.0476 55.2134 22.4673 52.698 20.073C55.563 18.081 58.278 16.809 60.546 16.308C61.125 16.179 61.668 16.092 62.181 16.056V16.056ZM48 23.877C49.053 24.852 50.106 25.935 51.159 27.069C50.1065 27.0273 49.0533 27.0043 48 27C46.935 27 45.888 27.033 44.841 27.069C45.891 25.935 46.947 24.852 48 23.877ZM48 33C50.895 33 53.7 33.171 56.397 33.456C58.0514 35.7212 59.5845 38.0725 60.99 40.5C62.436 43.005 63.69 45.519 64.794 48C63.6594 50.5655 62.3896 53.069 60.99 55.5C59.5845 57.9275 58.0514 60.2788 56.397 62.544C53.697 62.829 50.895 63 48 63C45.105 63 42.3 62.829 39.603 62.544C37.9486 60.2788 36.4155 57.9275 35.01 55.5C33.564 52.995 32.31 50.481 31.206 48C32.307 45.519 33.564 43.005 35.01 40.5C36.456 37.995 38.007 35.649 39.603 33.456C42.392 33.1557 45.1949 33.0035 48 33V33ZM31.452 34.8C30.897 35.685 30.345 36.576 29.814 37.5C29.2916 38.4149 28.7855 39.3391 28.296 40.272C27.846 38.8436 27.4507 37.3986 27.111 35.94C28.482 35.517 29.946 35.142 31.452 34.8V34.8ZM64.548 34.8C66.054 35.142 67.518 35.517 68.889 35.94C68.571 37.341 68.16 38.796 67.704 40.272C67.2145 39.3391 66.7084 38.4149 66.186 37.5C65.656 36.5904 65.1099 35.6902 64.548 34.8V34.8ZM21.462 38.109C22.23 41.304 23.289 44.619 24.663 48C23.3494 51.212 22.2794 54.5184 21.462 57.891C18.309 56.406 15.846 54.69 14.28 52.98C12.675 51.228 12 49.608 12 48C12 46.392 12.675 44.772 14.28 43.02C15.846 41.31 18.309 39.594 21.462 38.109ZM74.538 38.109C77.691 39.594 80.154 41.31 81.72 43.02C83.325 44.772 84 46.392 84 48C84 49.608 83.325 51.228 81.72 52.98C80.154 54.69 77.691 56.406 74.538 57.891C73.7206 54.5184 72.6506 51.212 71.337 48C72.6497 44.7876 73.7197 41.4814 74.538 38.109V38.109ZM48 39C43.065 39 39 43.065 39 48C39 52.935 43.065 57 48 57C52.935 57 57 52.935 57 48C57 43.065 52.935 39 48 39ZM48 45C49.692 45 51 46.308 51 48C51 49.692 49.692 51 48 51C46.308 51 45 49.692 45 48C45 46.308 46.308 45 48 45ZM28.296 55.728C28.785 56.652 29.28 57.576 29.811 58.5C30.345 59.424 30.897 60.315 31.452 61.2C29.946 60.858 28.482 60.483 27.111 60.06C27.429 58.659 27.84 57.204 28.296 55.728V55.728ZM67.704 55.728C68.16 57.204 68.574 58.659 68.889 60.06C67.518 60.483 66.054 60.858 64.548 61.2C65.103 60.315 65.655 59.424 66.189 58.5C66.72 57.576 67.215 56.652 67.704 55.728ZM26.169 66.036C29.319 66.966 32.718 67.71 36.327 68.208C38.456 70.9515 40.7875 73.5318 43.302 75.927C40.437 77.919 37.722 79.191 35.454 79.692C33.135 80.208 31.392 79.98 30 79.179C28.608 78.375 27.54 76.98 26.823 74.712C26.127 72.498 25.875 69.51 26.169 66.036V66.036ZM69.831 66.036C70.125 69.51 69.873 72.498 69.177 74.712C68.46 76.98 67.392 78.372 66 79.179C64.608 79.98 62.865 80.208 60.546 79.692C58.278 79.191 55.563 77.919 52.698 75.927C55.2134 73.5327 57.545 70.9524 59.673 68.208C63.1086 67.7394 66.5042 67.0134 69.831 66.036V66.036ZM44.841 68.931C45.888 68.967 46.935 69 48 69C49.065 69 50.112 68.967 51.159 68.931C50.109 70.065 49.053 71.148 48 72.123C46.9067 71.0996 45.8529 70.0349 44.841 68.931Z" fill="black"/>
</svg>
