<svg width="96" height="96" viewBox="0 0 96 96" fill="none" xmlns="http://www.w3.org/2000/svg">
<path d="M24 38.3751C27.1991 25.5426 35.2009 19.125 48 19.125C67.2 19.125 69.6 33.5625 79.2 35.9687C85.6009 37.5737 91.2 35.1675 96 28.7499C92.8009 41.5824 84.7991 48 72 48C52.8 48 50.4 33.5625 40.8 31.1563C34.3991 29.5513 28.8 31.9575 24 38.3751ZM0 67.2501C3.19913 54.4176 11.2009 48 24 48C43.2 48 45.6 62.4375 55.2 64.8437C61.6009 66.4487 67.2 64.0425 72 57.6249C68.8009 70.4574 60.7991 76.875 48 76.875C28.8 76.875 26.4 62.4375 16.8 60.0313C10.3991 58.4263 4.8 60.8325 0 67.2501Z" fill="black"/>
</svg>
